G04 #@! TF.GenerationSoftware,KiCad,Pcbnew,(6.0.9)*
G04 #@! TF.CreationDate,2022-11-19T12:24:37+01:00*
G04 #@! TF.ProjectId,SAMD21 breakout,53414d44-3231-4206-9272-65616b6f7574,rev?*
G04 #@! TF.SameCoordinates,Original*
G04 #@! TF.FileFunction,Legend,Top*
G04 #@! TF.FilePolarity,Positive*
%FSLAX46Y46*%
G04 Gerber Fmt 4.6, Leading zero omitted, Abs format (unit mm)*
G04 Created by KiCad (PCBNEW (6.0.9)) date 2022-11-19 12:24:37*
%MOMM*%
%LPD*%
G01*
G04 APERTURE LIST*
G04 Aperture macros list*
%AMRoundRect*
0 Rectangle with rounded corners*
0 $1 Rounding radius*
0 $2 $3 $4 $5 $6 $7 $8 $9 X,Y pos of 4 corners*
0 Add a 4 corners polygon primitive as box body*
4,1,4,$2,$3,$4,$5,$6,$7,$8,$9,$2,$3,0*
0 Add four circle primitives for the rounded corners*
1,1,$1+$1,$2,$3*
1,1,$1+$1,$4,$5*
1,1,$1+$1,$6,$7*
1,1,$1+$1,$8,$9*
0 Add four rect primitives between the rounded corners*
20,1,$1+$1,$2,$3,$4,$5,0*
20,1,$1+$1,$4,$5,$6,$7,0*
20,1,$1+$1,$6,$7,$8,$9,0*
20,1,$1+$1,$8,$9,$2,$3,0*%
G04 Aperture macros list end*
%ADD10C,0.150000*%
%ADD11C,0.120000*%
%ADD12RoundRect,0.250000X-0.325000X-0.450000X0.325000X-0.450000X0.325000X0.450000X-0.325000X0.450000X0*%
%ADD13RoundRect,0.150000X0.150000X-0.587500X0.150000X0.587500X-0.150000X0.587500X-0.150000X-0.587500X0*%
%ADD14R,1.700000X1.700000*%
%ADD15O,1.700000X1.700000*%
%ADD16RoundRect,0.150000X-0.150000X0.587500X-0.150000X-0.587500X0.150000X-0.587500X0.150000X0.587500X0*%
%ADD17RoundRect,0.250000X0.337500X0.475000X-0.337500X0.475000X-0.337500X-0.475000X0.337500X-0.475000X0*%
%ADD18C,1.000000*%
%ADD19R,6.500000X2.200000*%
%ADD20R,1.500000X1.500000*%
%ADD21C,2.200000*%
%ADD22RoundRect,0.075000X-0.415425X-0.521491X0.521491X0.415425X0.415425X0.521491X-0.521491X-0.415425X0*%
%ADD23RoundRect,0.075000X0.415425X-0.521491X0.521491X-0.415425X-0.415425X0.521491X-0.521491X0.415425X0*%
%ADD24R,1.350000X0.400000*%
%ADD25O,1.550000X0.890000*%
%ADD26R,1.550000X1.200000*%
%ADD27R,1.550000X1.500000*%
%ADD28O,0.950000X1.250000*%
G04 APERTURE END LIST*
D10*
X26318785Y10660000D02*
X26223547Y10707619D01*
X26080690Y10707619D01*
X25937833Y10660000D01*
X25842595Y10564761D01*
X25794976Y10469523D01*
X25747357Y10279047D01*
X25747357Y10136190D01*
X25794976Y9945714D01*
X25842595Y9850476D01*
X25937833Y9755238D01*
X26080690Y9707619D01*
X26175928Y9707619D01*
X26318785Y9755238D01*
X26366404Y9802857D01*
X26366404Y10136190D01*
X26175928Y10136190D01*
X26794976Y9707619D02*
X26794976Y10707619D01*
X27366404Y9707619D01*
X27366404Y10707619D01*
X27842595Y9707619D02*
X27842595Y10707619D01*
X28080690Y10707619D01*
X28223547Y10660000D01*
X28318785Y10564761D01*
X28366404Y10469523D01*
X28414023Y10279047D01*
X28414023Y10136190D01*
X28366404Y9945714D01*
X28318785Y9850476D01*
X28223547Y9755238D01*
X28080690Y9707619D01*
X27842595Y9707619D01*
X25985452Y15279619D02*
X26604500Y15279619D01*
X26271166Y14898666D01*
X26414023Y14898666D01*
X26509261Y14851047D01*
X26556880Y14803428D01*
X26604500Y14708190D01*
X26604500Y14470095D01*
X26556880Y14374857D01*
X26509261Y14327238D01*
X26414023Y14279619D01*
X26128309Y14279619D01*
X26033071Y14327238D01*
X25985452Y14374857D01*
X26890214Y15279619D02*
X27223547Y14279619D01*
X27556880Y15279619D01*
X27794976Y15279619D02*
X28414023Y15279619D01*
X28080690Y14898666D01*
X28223547Y14898666D01*
X28318785Y14851047D01*
X28366404Y14803428D01*
X28414023Y14708190D01*
X28414023Y14470095D01*
X28366404Y14374857D01*
X28318785Y14327238D01*
X28223547Y14279619D01*
X27937833Y14279619D01*
X27842595Y14327238D01*
X27794976Y14374857D01*
X4913333Y2732547D02*
X4913333Y2256357D01*
X4627619Y2827785D02*
X5627619Y2494452D01*
X4627619Y2161119D01*
X4627619Y1303976D02*
X4627619Y1875404D01*
X4627619Y1589690D02*
X5627619Y1589690D01*
X5484761Y1684928D01*
X5389523Y1780166D01*
X5341904Y1875404D01*
X26318785Y13200000D02*
X26223547Y13247619D01*
X26080690Y13247619D01*
X25937833Y13200000D01*
X25842595Y13104761D01*
X25794976Y13009523D01*
X25747357Y12819047D01*
X25747357Y12676190D01*
X25794976Y12485714D01*
X25842595Y12390476D01*
X25937833Y12295238D01*
X26080690Y12247619D01*
X26175928Y12247619D01*
X26318785Y12295238D01*
X26366404Y12342857D01*
X26366404Y12676190D01*
X26175928Y12676190D01*
X26794976Y12247619D02*
X26794976Y13247619D01*
X27366404Y12247619D01*
X27366404Y13247619D01*
X27842595Y12247619D02*
X27842595Y13247619D01*
X28080690Y13247619D01*
X28223547Y13200000D01*
X28318785Y13104761D01*
X28366404Y13009523D01*
X28414023Y12819047D01*
X28414023Y12676190D01*
X28366404Y12485714D01*
X28318785Y12390476D01*
X28223547Y12295238D01*
X28080690Y12247619D01*
X27842595Y12247619D01*
X20248571Y2684928D02*
X20296190Y2637309D01*
X20343809Y2542071D01*
X20248571Y2351595D01*
X20296190Y2256357D01*
X20343809Y2208738D01*
X19867619Y1780166D02*
X19867619Y1589690D01*
X19915238Y1494452D01*
X19962857Y1446833D01*
X20105714Y1351595D01*
X20296190Y1303976D01*
X20677142Y1303976D01*
X20772380Y1351595D01*
X20820000Y1399214D01*
X20867619Y1494452D01*
X20867619Y1684928D01*
X20820000Y1780166D01*
X20772380Y1827785D01*
X20677142Y1875404D01*
X20439047Y1875404D01*
X20343809Y1827785D01*
X20296190Y1780166D01*
X20248571Y1684928D01*
X20248571Y1494452D01*
X20296190Y1399214D01*
X20343809Y1351595D01*
X20439047Y1303976D01*
X-10977619Y8540952D02*
X-11644285Y8540952D01*
X-11453809Y8540952D02*
X-11549047Y8588571D01*
X-11596666Y8636190D01*
X-11644285Y8731428D01*
X-11644285Y8826666D01*
X-11025238Y9540952D02*
X-10977619Y9445714D01*
X-10977619Y9255238D01*
X-11025238Y9159999D01*
X-11120476Y9112380D01*
X-11501428Y9112380D01*
X-11596666Y9159999D01*
X-11644285Y9255238D01*
X-11644285Y9445714D01*
X-11596666Y9540952D01*
X-11501428Y9588571D01*
X-11406190Y9588571D01*
X-11310952Y9112380D01*
X-11025238Y9969523D02*
X-10977619Y10064761D01*
X-10977619Y10255238D01*
X-11025238Y10350476D01*
X-11120476Y10398095D01*
X-11168095Y10398095D01*
X-11263333Y10350476D01*
X-11310952Y10255238D01*
X-11310952Y10112380D01*
X-11358571Y10017142D01*
X-11453809Y9969523D01*
X-11501428Y9969523D01*
X-11596666Y10017142D01*
X-11644285Y10112380D01*
X-11644285Y10255238D01*
X-11596666Y10350476D01*
X-11025238Y11207619D02*
X-10977619Y11112380D01*
X-10977619Y10921904D01*
X-11025238Y10826666D01*
X-11120476Y10779047D01*
X-11501428Y10779047D01*
X-11596666Y10826666D01*
X-11644285Y10921904D01*
X-11644285Y11112380D01*
X-11596666Y11207619D01*
X-11501428Y11255238D01*
X-11406190Y11255238D01*
X-11310952Y10779047D01*
X-11644285Y11540952D02*
X-11644285Y11921904D01*
X-11977619Y11683809D02*
X-11120476Y11683809D01*
X-11025238Y11731428D01*
X-10977619Y11826666D01*
X-10977619Y11921904D01*
X17708571Y2684928D02*
X17756190Y2637309D01*
X17803809Y2542071D01*
X17708571Y2351595D01*
X17756190Y2256357D01*
X17803809Y2208738D01*
X17899047Y1684928D02*
X17946666Y1780166D01*
X17994285Y1827785D01*
X18089523Y1875404D01*
X18137142Y1875404D01*
X18232380Y1827785D01*
X18280000Y1780166D01*
X18327619Y1684928D01*
X18327619Y1494452D01*
X18280000Y1399214D01*
X18232380Y1351595D01*
X18137142Y1303976D01*
X18089523Y1303976D01*
X17994285Y1351595D01*
X17946666Y1399214D01*
X17899047Y1494452D01*
X17899047Y1684928D01*
X17851428Y1780166D01*
X17803809Y1827785D01*
X17708571Y1875404D01*
X17518095Y1875404D01*
X17422857Y1827785D01*
X17375238Y1780166D01*
X17327619Y1684928D01*
X17327619Y1494452D01*
X17375238Y1399214D01*
X17422857Y1351595D01*
X17518095Y1303976D01*
X17708571Y1303976D01*
X17803809Y1351595D01*
X17851428Y1399214D01*
X17899047Y1494452D01*
X-5532380Y18444595D02*
X-5532380Y19016023D01*
X-5532380Y18730309D02*
X-4532380Y18730309D01*
X-4675238Y18825547D01*
X-4770476Y18920785D01*
X-4818095Y19016023D01*
X-4627619Y18063642D02*
X-4580000Y18016023D01*
X-4532380Y17920785D01*
X-4532380Y17682690D01*
X-4580000Y17587452D01*
X-4627619Y17539833D01*
X-4722857Y17492214D01*
X-4818095Y17492214D01*
X-4960952Y17539833D01*
X-5532380Y18111261D01*
X-5532380Y17492214D01*
X-5151428Y17206500D02*
X-5103809Y17158880D01*
X-5056190Y17063642D01*
X-5151428Y16873166D01*
X-5103809Y16777928D01*
X-5056190Y16730309D01*
X5627619Y19063642D02*
X5627619Y18444595D01*
X5246666Y18777928D01*
X5246666Y18635071D01*
X5199047Y18539833D01*
X5151428Y18492214D01*
X5056190Y18444595D01*
X4818095Y18444595D01*
X4722857Y18492214D01*
X4675238Y18539833D01*
X4627619Y18635071D01*
X4627619Y18920785D01*
X4675238Y19016023D01*
X4722857Y19063642D01*
X5627619Y18158880D02*
X4627619Y17825547D01*
X5627619Y17492214D01*
X5627619Y17254119D02*
X5627619Y16635071D01*
X5246666Y16968404D01*
X5246666Y16825547D01*
X5199047Y16730309D01*
X5151428Y16682690D01*
X5056190Y16635071D01*
X4818095Y16635071D01*
X4722857Y16682690D01*
X4675238Y16730309D01*
X4627619Y16825547D01*
X4627619Y17111261D01*
X4675238Y17206500D01*
X4722857Y17254119D01*
X13247619Y19111261D02*
X13247619Y18539833D01*
X12247619Y18825547D02*
X13247619Y18825547D01*
X13247619Y18301738D02*
X12247619Y17635071D01*
X13247619Y17635071D02*
X12247619Y18301738D01*
X8120000Y18444595D02*
X8167619Y18539833D01*
X8167619Y18682690D01*
X8120000Y18825547D01*
X8024761Y18920785D01*
X7929523Y18968404D01*
X7739047Y19016023D01*
X7596190Y19016023D01*
X7405714Y18968404D01*
X7310476Y18920785D01*
X7215238Y18825547D01*
X7167619Y18682690D01*
X7167619Y18587452D01*
X7215238Y18444595D01*
X7262857Y18396976D01*
X7596190Y18396976D01*
X7596190Y18587452D01*
X7167619Y17968404D02*
X8167619Y17968404D01*
X7167619Y17396976D01*
X8167619Y17396976D01*
X7167619Y16920785D02*
X8167619Y16920785D01*
X8167619Y16682690D01*
X8120000Y16539833D01*
X8024761Y16444595D01*
X7929523Y16396976D01*
X7739047Y16349357D01*
X7596190Y16349357D01*
X7405714Y16396976D01*
X7310476Y16444595D01*
X7215238Y16539833D01*
X7167619Y16682690D01*
X7167619Y16920785D01*
X22788571Y3637309D02*
X22836190Y3589690D01*
X22883809Y3494452D01*
X22788571Y3303976D01*
X22836190Y3208738D01*
X22883809Y3161119D01*
X22407619Y2256357D02*
X22407619Y2827785D01*
X22407619Y2542071D02*
X23407619Y2542071D01*
X23264761Y2637309D01*
X23169523Y2732547D01*
X23121904Y2827785D01*
X23407619Y1637309D02*
X23407619Y1542071D01*
X23360000Y1446833D01*
X23312380Y1399214D01*
X23217142Y1351595D01*
X23026666Y1303976D01*
X22788571Y1303976D01*
X22598095Y1351595D01*
X22502857Y1399214D01*
X22455238Y1446833D01*
X22407619Y1542071D01*
X22407619Y1637309D01*
X22455238Y1732547D01*
X22502857Y1780166D01*
X22598095Y1827785D01*
X22788571Y1875404D01*
X23026666Y1875404D01*
X23217142Y1827785D01*
X23312380Y1780166D01*
X23360000Y1732547D01*
X23407619Y1637309D01*
X30678380Y17557714D02*
X30678380Y16986285D01*
X30678380Y17272000D02*
X29678380Y17272000D01*
X29821238Y17176761D01*
X29916476Y17081523D01*
X29964095Y16986285D01*
X-10612380Y18444595D02*
X-10612380Y19016023D01*
X-10612380Y18730309D02*
X-9612380Y18730309D01*
X-9755238Y18825547D01*
X-9850476Y18920785D01*
X-9898095Y19016023D01*
X-10612380Y17492214D02*
X-10612380Y18063642D01*
X-10612380Y17777928D02*
X-9612380Y17777928D01*
X-9755238Y17873166D01*
X-9850476Y17968404D01*
X-9898095Y18063642D01*
X-10231428Y17206500D02*
X-10183809Y17158880D01*
X-10136190Y17063642D01*
X-10231428Y16873166D01*
X-10183809Y16777928D01*
X-10136190Y16730309D01*
X12533333Y2732547D02*
X12533333Y2256357D01*
X12247619Y2827785D02*
X13247619Y2494452D01*
X12247619Y2161119D01*
X12914285Y1399214D02*
X12247619Y1399214D01*
X13295238Y1637309D02*
X12580952Y1875404D01*
X12580952Y1256357D01*
X27487619Y18968404D02*
X28487619Y18968404D01*
X27773333Y18635071D01*
X28487619Y18301738D01*
X27487619Y18301738D01*
X28487619Y17635071D02*
X28487619Y17444595D01*
X28440000Y17349357D01*
X28344761Y17254119D01*
X28154285Y17206500D01*
X27820952Y17206500D01*
X27630476Y17254119D01*
X27535238Y17349357D01*
X27487619Y17444595D01*
X27487619Y17635071D01*
X27535238Y17730309D01*
X27630476Y17825547D01*
X27820952Y17873166D01*
X28154285Y17873166D01*
X28344761Y17825547D01*
X28440000Y17730309D01*
X28487619Y17635071D01*
X27535238Y16825547D02*
X27487619Y16682690D01*
X27487619Y16444595D01*
X27535238Y16349357D01*
X27582857Y16301738D01*
X27678095Y16254119D01*
X27773333Y16254119D01*
X27868571Y16301738D01*
X27916190Y16349357D01*
X27963809Y16444595D01*
X28011428Y16635071D01*
X28059047Y16730309D01*
X28106666Y16777928D01*
X28201904Y16825547D01*
X28297142Y16825547D01*
X28392380Y16777928D01*
X28440000Y16730309D01*
X28487619Y16635071D01*
X28487619Y16396976D01*
X28440000Y16254119D01*
X27487619Y15825547D02*
X28487619Y15825547D01*
X31027619Y19063642D02*
X31027619Y18396976D01*
X30027619Y18825547D01*
X-2040000Y18444595D02*
X-1992380Y18539833D01*
X-1992380Y18682690D01*
X-2040000Y18825547D01*
X-2135238Y18920785D01*
X-2230476Y18968404D01*
X-2420952Y19016023D01*
X-2563809Y19016023D01*
X-2754285Y18968404D01*
X-2849523Y18920785D01*
X-2944761Y18825547D01*
X-2992380Y18682690D01*
X-2992380Y18587452D01*
X-2944761Y18444595D01*
X-2897142Y18396976D01*
X-2563809Y18396976D01*
X-2563809Y18587452D01*
X-2992380Y17968404D02*
X-1992380Y17968404D01*
X-2992380Y17396976D01*
X-1992380Y17396976D01*
X-2992380Y16920785D02*
X-1992380Y16920785D01*
X-1992380Y16682690D01*
X-2040000Y16539833D01*
X-2135238Y16444595D01*
X-2230476Y16396976D01*
X-2420952Y16349357D01*
X-2563809Y16349357D01*
X-2754285Y16396976D01*
X-2849523Y16444595D01*
X-2944761Y16539833D01*
X-2992380Y16682690D01*
X-2992380Y16920785D01*
X547619Y18492214D02*
X547619Y18968404D01*
X71428Y19016023D01*
X119047Y18968404D01*
X166666Y18873166D01*
X166666Y18635071D01*
X119047Y18539833D01*
X71428Y18492214D01*
X-23809Y18444595D01*
X-261904Y18444595D01*
X-357142Y18492214D01*
X-404761Y18539833D01*
X-452380Y18635071D01*
X-452380Y18873166D01*
X-404761Y18968404D01*
X-357142Y19016023D01*
X547619Y18158880D02*
X-452380Y17825547D01*
X547619Y17492214D01*
X9993333Y2732547D02*
X9993333Y2256357D01*
X9707619Y2827785D02*
X10707619Y2494452D01*
X9707619Y2161119D01*
X10707619Y1923023D02*
X10707619Y1303976D01*
X10326666Y1637309D01*
X10326666Y1494452D01*
X10279047Y1399214D01*
X10231428Y1351595D01*
X10136190Y1303976D01*
X9898095Y1303976D01*
X9802857Y1351595D01*
X9755238Y1399214D01*
X9707619Y1494452D01*
X9707619Y1780166D01*
X9755238Y1875404D01*
X9802857Y1923023D01*
X22407619Y18968404D02*
X23407619Y18968404D01*
X22693333Y18635071D01*
X23407619Y18301738D01*
X22407619Y18301738D01*
X22407619Y17825547D02*
X23407619Y17825547D01*
X22455238Y17396976D02*
X22407619Y17254119D01*
X22407619Y17016023D01*
X22455238Y16920785D01*
X22502857Y16873166D01*
X22598095Y16825547D01*
X22693333Y16825547D01*
X22788571Y16873166D01*
X22836190Y16920785D01*
X22883809Y17016023D01*
X22931428Y17206500D01*
X22979047Y17301738D01*
X23026666Y17349357D01*
X23121904Y17396976D01*
X23217142Y17396976D01*
X23312380Y17349357D01*
X23360000Y17301738D01*
X23407619Y17206500D01*
X23407619Y16968404D01*
X23360000Y16825547D01*
X23407619Y16206500D02*
X23407619Y16016023D01*
X23360000Y15920785D01*
X23264761Y15825547D01*
X23074285Y15777928D01*
X22740952Y15777928D01*
X22550476Y15825547D01*
X22455238Y15920785D01*
X22407619Y16016023D01*
X22407619Y16206500D01*
X22455238Y16301738D01*
X22550476Y16396976D01*
X22740952Y16444595D01*
X23074285Y16444595D01*
X23264761Y16396976D01*
X23360000Y16301738D01*
X23407619Y16206500D01*
X30408571Y2684928D02*
X30456190Y2637309D01*
X30503809Y2542071D01*
X30408571Y2351595D01*
X30456190Y2256357D01*
X30503809Y2208738D01*
X30694285Y1399214D02*
X30027619Y1399214D01*
X31075238Y1637309D02*
X30360952Y1875404D01*
X30360952Y1256357D01*
X24995238Y19016023D02*
X24947619Y18873166D01*
X24947619Y18635071D01*
X24995238Y18539833D01*
X25042857Y18492214D01*
X25138095Y18444595D01*
X25233333Y18444595D01*
X25328571Y18492214D01*
X25376190Y18539833D01*
X25423809Y18635071D01*
X25471428Y18825547D01*
X25519047Y18920785D01*
X25566666Y18968404D01*
X25661904Y19016023D01*
X25757142Y19016023D01*
X25852380Y18968404D01*
X25900000Y18920785D01*
X25947619Y18825547D01*
X25947619Y18587452D01*
X25900000Y18444595D01*
X25042857Y17444595D02*
X24995238Y17492214D01*
X24947619Y17635071D01*
X24947619Y17730309D01*
X24995238Y17873166D01*
X25090476Y17968404D01*
X25185714Y18016023D01*
X25376190Y18063642D01*
X25519047Y18063642D01*
X25709523Y18016023D01*
X25804761Y17968404D01*
X25900000Y17873166D01*
X25947619Y17730309D01*
X25947619Y17635071D01*
X25900000Y17492214D01*
X25852380Y17444595D01*
X24947619Y17016023D02*
X25947619Y17016023D01*
X24947619Y16444595D02*
X25519047Y16873166D01*
X25947619Y16444595D02*
X25376190Y17016023D01*
X35705023Y12342857D02*
X35657404Y12295238D01*
X35514547Y12247619D01*
X35419309Y12247619D01*
X35276452Y12295238D01*
X35181214Y12390476D01*
X35133595Y12485714D01*
X35085976Y12676190D01*
X35085976Y12819047D01*
X35133595Y13009523D01*
X35181214Y13104761D01*
X35276452Y13200000D01*
X35419309Y13247619D01*
X35514547Y13247619D01*
X35657404Y13200000D01*
X35705023Y13152380D01*
X36609785Y12247619D02*
X36133595Y12247619D01*
X36133595Y13247619D01*
X36943119Y12247619D02*
X36943119Y13247619D01*
X37514547Y12247619D02*
X37085976Y12819047D01*
X37514547Y13247619D02*
X36943119Y12676190D01*
X15073333Y2732547D02*
X15073333Y2256357D01*
X14787619Y2827785D02*
X15787619Y2494452D01*
X14787619Y2161119D01*
X15787619Y1351595D02*
X15787619Y1827785D01*
X15311428Y1875404D01*
X15359047Y1827785D01*
X15406666Y1732547D01*
X15406666Y1494452D01*
X15359047Y1399214D01*
X15311428Y1351595D01*
X15216190Y1303976D01*
X14978095Y1303976D01*
X14882857Y1351595D01*
X14835238Y1399214D01*
X14787619Y1494452D01*
X14787619Y1732547D01*
X14835238Y1827785D01*
X14882857Y1875404D01*
X7453333Y2732547D02*
X7453333Y2256357D01*
X7167619Y2827785D02*
X8167619Y2494452D01*
X7167619Y2161119D01*
X8072380Y1875404D02*
X8120000Y1827785D01*
X8167619Y1732547D01*
X8167619Y1494452D01*
X8120000Y1399214D01*
X8072380Y1351595D01*
X7977142Y1303976D01*
X7881904Y1303976D01*
X7739047Y1351595D01*
X7167619Y1923023D01*
X7167619Y1303976D01*
X27868571Y2684928D02*
X27916190Y2637309D01*
X27963809Y2542071D01*
X27868571Y2351595D01*
X27916190Y2256357D01*
X27963809Y2208738D01*
X28487619Y1923023D02*
X28487619Y1303976D01*
X28106666Y1637309D01*
X28106666Y1494452D01*
X28059047Y1399214D01*
X28011428Y1351595D01*
X27916190Y1303976D01*
X27678095Y1303976D01*
X27582857Y1351595D01*
X27535238Y1399214D01*
X27487619Y1494452D01*
X27487619Y1780166D01*
X27535238Y1875404D01*
X27582857Y1923023D01*
X32948571Y2684928D02*
X32996190Y2637309D01*
X33043809Y2542071D01*
X32948571Y2351595D01*
X32996190Y2256357D01*
X33043809Y2208738D01*
X33567619Y1351595D02*
X33567619Y1827785D01*
X33091428Y1875404D01*
X33139047Y1827785D01*
X33186666Y1732547D01*
X33186666Y1494452D01*
X33139047Y1399214D01*
X33091428Y1351595D01*
X32996190Y1303976D01*
X32758095Y1303976D01*
X32662857Y1351595D01*
X32615238Y1399214D01*
X32567619Y1494452D01*
X32567619Y1732547D01*
X32615238Y1827785D01*
X32662857Y1875404D01*
X33567619Y18539833D02*
X33567619Y18730309D01*
X33520000Y18825547D01*
X33472380Y18873166D01*
X33329523Y18968404D01*
X33139047Y19016023D01*
X32758095Y19016023D01*
X32662857Y18968404D01*
X32615238Y18920785D01*
X32567619Y18825547D01*
X32567619Y18635071D01*
X32615238Y18539833D01*
X32662857Y18492214D01*
X32758095Y18444595D01*
X32996190Y18444595D01*
X33091428Y18492214D01*
X33139047Y18539833D01*
X33186666Y18635071D01*
X33186666Y18825547D01*
X33139047Y18920785D01*
X33091428Y18968404D01*
X32996190Y19016023D01*
X35133595Y14787619D02*
X35133595Y15787619D01*
X35371690Y15787619D01*
X35514547Y15740000D01*
X35609785Y15644761D01*
X35657404Y15549523D01*
X35705023Y15359047D01*
X35705023Y15216190D01*
X35657404Y15025714D01*
X35609785Y14930476D01*
X35514547Y14835238D01*
X35371690Y14787619D01*
X35133595Y14787619D01*
X36133595Y14787619D02*
X36133595Y15787619D01*
X36800261Y15787619D02*
X36990738Y15787619D01*
X37085976Y15740000D01*
X37181214Y15644761D01*
X37228833Y15454285D01*
X37228833Y15120952D01*
X37181214Y14930476D01*
X37085976Y14835238D01*
X36990738Y14787619D01*
X36800261Y14787619D01*
X36705023Y14835238D01*
X36609785Y14930476D01*
X36562166Y15120952D01*
X36562166Y15454285D01*
X36609785Y15644761D01*
X36705023Y15740000D01*
X36800261Y15787619D01*
X14787619Y18396976D02*
X15263809Y18730309D01*
X14787619Y18968404D02*
X15787619Y18968404D01*
X15787619Y18587452D01*
X15740000Y18492214D01*
X15692380Y18444595D01*
X15597142Y18396976D01*
X15454285Y18396976D01*
X15359047Y18444595D01*
X15311428Y18492214D01*
X15263809Y18587452D01*
X15263809Y18968404D01*
X15787619Y18063642D02*
X14787619Y17396976D01*
X15787619Y17396976D02*
X14787619Y18063642D01*
X-166666Y4542071D02*
X-166666Y4065880D01*
X-452380Y4637309D02*
X547619Y4303976D01*
X-452380Y3970642D01*
X-452380Y3065880D02*
X23809Y3399214D01*
X-452380Y3637309D02*
X547619Y3637309D01*
X547619Y3256357D01*
X500000Y3161119D01*
X452380Y3113500D01*
X357142Y3065880D01*
X214285Y3065880D01*
X119047Y3113500D01*
X71428Y3161119D01*
X23809Y3256357D01*
X23809Y3637309D01*
X71428Y2637309D02*
X71428Y2303976D01*
X-452380Y2161119D02*
X-452380Y2637309D01*
X547619Y2637309D01*
X547619Y2161119D01*
X71428Y1399214D02*
X71428Y1732547D01*
X-452380Y1732547D02*
X547619Y1732547D01*
X547619Y1256357D01*
X-10763095Y3087619D02*
X-10144047Y3087619D01*
X-10477380Y2706666D01*
X-10334523Y2706666D01*
X-10239285Y2659047D01*
X-10191666Y2611428D01*
X-10144047Y2516190D01*
X-10144047Y2278095D01*
X-10191666Y2182857D01*
X-10239285Y2135238D01*
X-10334523Y2087619D01*
X-10620238Y2087619D01*
X-10715476Y2135238D01*
X-10763095Y2182857D01*
X-9858333Y3087619D02*
X-9525000Y2087619D01*
X-9191666Y3087619D01*
X-8953571Y3087619D02*
X-8334523Y3087619D01*
X-8667857Y2706666D01*
X-8525000Y2706666D01*
X-8429761Y2659047D01*
X-8382142Y2611428D01*
X-8334523Y2516190D01*
X-8334523Y2278095D01*
X-8382142Y2182857D01*
X-8429761Y2135238D01*
X-8525000Y2087619D01*
X-8810714Y2087619D01*
X-8905952Y2135238D01*
X-8953571Y2182857D01*
X34895500Y5910000D02*
X35895500Y5910000D01*
X35705023Y4627619D02*
X35371690Y5103809D01*
X35133595Y4627619D02*
X35133595Y5627619D01*
X35514547Y5627619D01*
X35609785Y5580000D01*
X35657404Y5532380D01*
X35705023Y5437142D01*
X35705023Y5294285D01*
X35657404Y5199047D01*
X35609785Y5151428D01*
X35514547Y5103809D01*
X35133595Y5103809D01*
X35895500Y5910000D02*
X36847880Y5910000D01*
X36085976Y4675238D02*
X36228833Y4627619D01*
X36466928Y4627619D01*
X36562166Y4675238D01*
X36609785Y4722857D01*
X36657404Y4818095D01*
X36657404Y4913333D01*
X36609785Y5008571D01*
X36562166Y5056190D01*
X36466928Y5103809D01*
X36276452Y5151428D01*
X36181214Y5199047D01*
X36133595Y5246666D01*
X36085976Y5341904D01*
X36085976Y5437142D01*
X36133595Y5532380D01*
X36181214Y5580000D01*
X36276452Y5627619D01*
X36514547Y5627619D01*
X36657404Y5580000D01*
X36847880Y5910000D02*
X37609785Y5910000D01*
X36943119Y5627619D02*
X37514547Y5627619D01*
X37228833Y4627619D02*
X37228833Y5627619D01*
X17375238Y19016023D02*
X17327619Y18873166D01*
X17327619Y18635071D01*
X17375238Y18539833D01*
X17422857Y18492214D01*
X17518095Y18444595D01*
X17613333Y18444595D01*
X17708571Y18492214D01*
X17756190Y18539833D01*
X17803809Y18635071D01*
X17851428Y18825547D01*
X17899047Y18920785D01*
X17946666Y18968404D01*
X18041904Y19016023D01*
X18137142Y19016023D01*
X18232380Y18968404D01*
X18280000Y18920785D01*
X18327619Y18825547D01*
X18327619Y18587452D01*
X18280000Y18444595D01*
X17422857Y17444595D02*
X17375238Y17492214D01*
X17327619Y17635071D01*
X17327619Y17730309D01*
X17375238Y17873166D01*
X17470476Y17968404D01*
X17565714Y18016023D01*
X17756190Y18063642D01*
X17899047Y18063642D01*
X18089523Y18016023D01*
X18184761Y17968404D01*
X18280000Y17873166D01*
X18327619Y17730309D01*
X18327619Y17635071D01*
X18280000Y17492214D01*
X18232380Y17444595D01*
X17327619Y16539833D02*
X17327619Y17016023D01*
X18327619Y17016023D01*
X36726761Y7532857D02*
X36774380Y7675714D01*
X36774380Y7913809D01*
X36726761Y8009047D01*
X36679142Y8056666D01*
X36583904Y8104285D01*
X36488666Y8104285D01*
X36393428Y8056666D01*
X36345809Y8009047D01*
X36298190Y7913809D01*
X36250571Y7723333D01*
X36202952Y7628095D01*
X36155333Y7580476D01*
X36060095Y7532857D01*
X35964857Y7532857D01*
X35869619Y7580476D01*
X35822000Y7628095D01*
X35774380Y7723333D01*
X35774380Y7961428D01*
X35822000Y8104285D01*
X35774380Y8437619D02*
X36774380Y8675714D01*
X36060095Y8866190D01*
X36774380Y9056666D01*
X35774380Y9294761D01*
X36774380Y9675714D02*
X35774380Y9675714D01*
X35774380Y9913809D01*
X35822000Y10056666D01*
X35917238Y10151904D01*
X36012476Y10199523D01*
X36202952Y10247142D01*
X36345809Y10247142D01*
X36536285Y10199523D01*
X36631523Y10151904D01*
X36726761Y10056666D01*
X36774380Y9913809D01*
X36774380Y9675714D01*
X2087619Y18968404D02*
X3087619Y18968404D01*
X2087619Y18396976D01*
X3087619Y18396976D01*
X2182857Y17349357D02*
X2135238Y17396976D01*
X2087619Y17539833D01*
X2087619Y17635071D01*
X2135238Y17777928D01*
X2230476Y17873166D01*
X2325714Y17920785D01*
X2516190Y17968404D01*
X2659047Y17968404D01*
X2849523Y17920785D01*
X2944761Y17873166D01*
X3040000Y17777928D01*
X3087619Y17635071D01*
X3087619Y17539833D01*
X3040000Y17396976D01*
X2992380Y17349357D01*
X19915238Y19016023D02*
X19867619Y18873166D01*
X19867619Y18635071D01*
X19915238Y18539833D01*
X19962857Y18492214D01*
X20058095Y18444595D01*
X20153333Y18444595D01*
X20248571Y18492214D01*
X20296190Y18539833D01*
X20343809Y18635071D01*
X20391428Y18825547D01*
X20439047Y18920785D01*
X20486666Y18968404D01*
X20581904Y19016023D01*
X20677142Y19016023D01*
X20772380Y18968404D01*
X20820000Y18920785D01*
X20867619Y18825547D01*
X20867619Y18587452D01*
X20820000Y18444595D01*
X19867619Y18016023D02*
X20867619Y18016023D01*
X20867619Y17777928D01*
X20820000Y17635071D01*
X20724761Y17539833D01*
X20629523Y17492214D01*
X20439047Y17444595D01*
X20296190Y17444595D01*
X20105714Y17492214D01*
X20010476Y17539833D01*
X19915238Y17635071D01*
X19867619Y17777928D01*
X19867619Y18016023D01*
X20153333Y17063642D02*
X20153333Y16587452D01*
X19867619Y17158880D02*
X20867619Y16825547D01*
X19867619Y16492214D01*
X26318785Y5580000D02*
X26223547Y5627619D01*
X26080690Y5627619D01*
X25937833Y5580000D01*
X25842595Y5484761D01*
X25794976Y5389523D01*
X25747357Y5199047D01*
X25747357Y5056190D01*
X25794976Y4865714D01*
X25842595Y4770476D01*
X25937833Y4675238D01*
X26080690Y4627619D01*
X26175928Y4627619D01*
X26318785Y4675238D01*
X26366404Y4722857D01*
X26366404Y5056190D01*
X26175928Y5056190D01*
X26794976Y4627619D02*
X26794976Y5627619D01*
X27366404Y4627619D01*
X27366404Y5627619D01*
X27842595Y4627619D02*
X27842595Y5627619D01*
X28080690Y5627619D01*
X28223547Y5580000D01*
X28318785Y5484761D01*
X28366404Y5389523D01*
X28414023Y5199047D01*
X28414023Y5056190D01*
X28366404Y4865714D01*
X28318785Y4770476D01*
X28223547Y4675238D01*
X28080690Y4627619D01*
X27842595Y4627619D01*
X-20057619Y17953333D02*
X-19581428Y17953333D01*
X-20152857Y17667619D02*
X-19819523Y18667619D01*
X-19486190Y17667619D01*
X-19295714Y18667619D02*
X-18724285Y18667619D01*
X-19010000Y17667619D02*
X-19010000Y18667619D01*
X-18438571Y17715238D02*
X-18295714Y17667619D01*
X-18057619Y17667619D01*
X-17962380Y17715238D01*
X-17914761Y17762857D01*
X-17867142Y17858095D01*
X-17867142Y17953333D01*
X-17914761Y18048571D01*
X-17962380Y18096190D01*
X-18057619Y18143809D01*
X-18248095Y18191428D01*
X-18343333Y18239047D01*
X-18390952Y18286666D01*
X-18438571Y18381904D01*
X-18438571Y18477142D01*
X-18390952Y18572380D01*
X-18343333Y18620000D01*
X-18248095Y18667619D01*
X-18010000Y18667619D01*
X-17867142Y18620000D01*
X-17486190Y17953333D02*
X-17010000Y17953333D01*
X-17581428Y17667619D02*
X-17248095Y18667619D01*
X-16914761Y17667619D01*
X-16581428Y17667619D02*
X-16581428Y18667619D01*
X-16248095Y17953333D01*
X-15914761Y18667619D01*
X-15914761Y17667619D01*
X-15438571Y17667619D02*
X-15438571Y18667619D01*
X-15200476Y18667619D01*
X-15057619Y18620000D01*
X-14962380Y18524761D01*
X-14914761Y18429523D01*
X-14867142Y18239047D01*
X-14867142Y18096190D01*
X-14914761Y17905714D01*
X-14962380Y17810476D01*
X-15057619Y17715238D01*
X-15200476Y17667619D01*
X-15438571Y17667619D01*
X-14486190Y18572380D02*
X-14438571Y18620000D01*
X-14343333Y18667619D01*
X-14105238Y18667619D01*
X-14010000Y18620000D01*
X-13962380Y18572380D01*
X-13914761Y18477142D01*
X-13914761Y18381904D01*
X-13962380Y18239047D01*
X-14533809Y17667619D01*
X-13914761Y17667619D01*
X-12962380Y17667619D02*
X-13533809Y17667619D01*
X-13248095Y17667619D02*
X-13248095Y18667619D01*
X-13343333Y18524761D01*
X-13438571Y18429523D01*
X-13533809Y18381904D01*
X-19581428Y17010000D02*
X-19676666Y17057619D01*
X-19819523Y17057619D01*
X-19962380Y17010000D01*
X-20057619Y16914761D01*
X-20105238Y16819523D01*
X-20152857Y16629047D01*
X-20152857Y16486190D01*
X-20105238Y16295714D01*
X-20057619Y16200476D01*
X-19962380Y16105238D01*
X-19819523Y16057619D01*
X-19724285Y16057619D01*
X-19581428Y16105238D01*
X-19533809Y16152857D01*
X-19533809Y16486190D01*
X-19724285Y16486190D01*
X-18581428Y16057619D02*
X-19152857Y16057619D01*
X-18867142Y16057619D02*
X-18867142Y17057619D01*
X-18962380Y16914761D01*
X-19057619Y16819523D01*
X-19152857Y16771904D01*
X-18010000Y16629047D02*
X-18105238Y16676666D01*
X-18152857Y16724285D01*
X-18200476Y16819523D01*
X-18200476Y16867142D01*
X-18152857Y16962380D01*
X-18105238Y17010000D01*
X-18010000Y17057619D01*
X-17819523Y17057619D01*
X-17724285Y17010000D01*
X-17676666Y16962380D01*
X-17629047Y16867142D01*
X-17629047Y16819523D01*
X-17676666Y16724285D01*
X-17724285Y16676666D01*
X-17819523Y16629047D01*
X-18010000Y16629047D01*
X-18105238Y16581428D01*
X-18152857Y16533809D01*
X-18200476Y16438571D01*
X-18200476Y16248095D01*
X-18152857Y16152857D01*
X-18105238Y16105238D01*
X-18010000Y16057619D01*
X-17819523Y16057619D01*
X-17724285Y16105238D01*
X-17676666Y16152857D01*
X-17629047Y16248095D01*
X-17629047Y16438571D01*
X-17676666Y16533809D01*
X-17724285Y16581428D01*
X-17819523Y16629047D01*
X-17248095Y16343333D02*
X-16771904Y16343333D01*
X-17343333Y16057619D02*
X-17010000Y17057619D01*
X-16676666Y16057619D01*
X-16343333Y16438571D02*
X-15581428Y16438571D01*
X-15152857Y16343333D02*
X-14676666Y16343333D01*
X-15248095Y16057619D02*
X-14914761Y17057619D01*
X-14581428Y16057619D01*
X-14248095Y17057619D02*
X-14248095Y16248095D01*
X-14200476Y16152857D01*
X-14152857Y16105238D01*
X-14057619Y16057619D01*
X-13867142Y16057619D01*
X-13771904Y16105238D01*
X-13724285Y16152857D01*
X-13676666Y16248095D01*
X-13676666Y17057619D01*
X-19510000Y14447619D02*
X-19510000Y15447619D01*
X-19510000Y15066666D02*
X-19414761Y15114285D01*
X-19224285Y15114285D01*
X-19129047Y15066666D01*
X-19081428Y15019047D01*
X-19033809Y14923809D01*
X-19033809Y14638095D01*
X-19081428Y14542857D01*
X-19129047Y14495238D01*
X-19224285Y14447619D01*
X-19414761Y14447619D01*
X-19510000Y14495238D01*
X-18605238Y14447619D02*
X-18605238Y15114285D01*
X-18605238Y14923809D02*
X-18557619Y15019047D01*
X-18510000Y15066666D01*
X-18414761Y15114285D01*
X-18319523Y15114285D01*
X-17605238Y14495238D02*
X-17700476Y14447619D01*
X-17890952Y14447619D01*
X-17986190Y14495238D01*
X-18033809Y14590476D01*
X-18033809Y14971428D01*
X-17986190Y15066666D01*
X-17890952Y15114285D01*
X-17700476Y15114285D01*
X-17605238Y15066666D01*
X-17557619Y14971428D01*
X-17557619Y14876190D01*
X-18033809Y14780952D01*
X-16700476Y14447619D02*
X-16700476Y14971428D01*
X-16748095Y15066666D01*
X-16843333Y15114285D01*
X-17033809Y15114285D01*
X-17129047Y15066666D01*
X-16700476Y14495238D02*
X-16795714Y14447619D01*
X-17033809Y14447619D01*
X-17129047Y14495238D01*
X-17176666Y14590476D01*
X-17176666Y14685714D01*
X-17129047Y14780952D01*
X-17033809Y14828571D01*
X-16795714Y14828571D01*
X-16700476Y14876190D01*
X-16224285Y14447619D02*
X-16224285Y15447619D01*
X-16129047Y14828571D02*
X-15843333Y14447619D01*
X-15843333Y15114285D02*
X-16224285Y14733333D01*
X-15271904Y14447619D02*
X-15367142Y14495238D01*
X-15414761Y14542857D01*
X-15462380Y14638095D01*
X-15462380Y14923809D01*
X-15414761Y15019047D01*
X-15367142Y15066666D01*
X-15271904Y15114285D01*
X-15129047Y15114285D01*
X-15033809Y15066666D01*
X-14986190Y15019047D01*
X-14938571Y14923809D01*
X-14938571Y14638095D01*
X-14986190Y14542857D01*
X-15033809Y14495238D01*
X-15129047Y14447619D01*
X-15271904Y14447619D01*
X-14081428Y15114285D02*
X-14081428Y14447619D01*
X-14510000Y15114285D02*
X-14510000Y14590476D01*
X-14462380Y14495238D01*
X-14367142Y14447619D01*
X-14224285Y14447619D01*
X-14129047Y14495238D01*
X-14081428Y14542857D01*
X-13748095Y15114285D02*
X-13367142Y15114285D01*
X-13605238Y15447619D02*
X-13605238Y14590476D01*
X-13557619Y14495238D01*
X-13462380Y14447619D01*
X-13367142Y14447619D01*
X25328571Y2684928D02*
X25376190Y2637309D01*
X25423809Y2542071D01*
X25328571Y2351595D01*
X25376190Y2256357D01*
X25423809Y2208738D01*
X25852380Y1875404D02*
X25900000Y1827785D01*
X25947619Y1732547D01*
X25947619Y1494452D01*
X25900000Y1399214D01*
X25852380Y1351595D01*
X25757142Y1303976D01*
X25661904Y1303976D01*
X25519047Y1351595D01*
X24947619Y1923023D01*
X24947619Y1303976D01*
X-8072380Y18444595D02*
X-8072380Y19016023D01*
X-8072380Y18730309D02*
X-7072380Y18730309D01*
X-7215238Y18825547D01*
X-7310476Y18920785D01*
X-7358095Y19016023D01*
X-7072380Y18111261D02*
X-7072380Y17492214D01*
X-7453333Y17825547D01*
X-7453333Y17682690D01*
X-7500952Y17587452D01*
X-7548571Y17539833D01*
X-7643809Y17492214D01*
X-7881904Y17492214D01*
X-7977142Y17539833D01*
X-8024761Y17587452D01*
X-8072380Y17682690D01*
X-8072380Y17968404D01*
X-8024761Y18063642D01*
X-7977142Y18111261D01*
X-7691428Y17206500D02*
X-7643809Y17158880D01*
X-7596190Y17063642D01*
X-7691428Y16873166D01*
X-7643809Y16777928D01*
X-7596190Y16730309D01*
X10990000Y19206500D02*
X10990000Y18206500D01*
X9707619Y18396976D02*
X10183809Y18730309D01*
X9707619Y18968404D02*
X10707619Y18968404D01*
X10707619Y18587452D01*
X10660000Y18492214D01*
X10612380Y18444595D01*
X10517142Y18396976D01*
X10374285Y18396976D01*
X10279047Y18444595D01*
X10231428Y18492214D01*
X10183809Y18587452D01*
X10183809Y18968404D01*
X10990000Y18206500D02*
X10990000Y17254119D01*
X9755238Y18016023D02*
X9707619Y17873166D01*
X9707619Y17635071D01*
X9755238Y17539833D01*
X9802857Y17492214D01*
X9898095Y17444595D01*
X9993333Y17444595D01*
X10088571Y17492214D01*
X10136190Y17539833D01*
X10183809Y17635071D01*
X10231428Y17825547D01*
X10279047Y17920785D01*
X10326666Y17968404D01*
X10421904Y18016023D01*
X10517142Y18016023D01*
X10612380Y17968404D01*
X10660000Y17920785D01*
X10707619Y17825547D01*
X10707619Y17587452D01*
X10660000Y17444595D01*
X10990000Y17254119D02*
X10990000Y16492214D01*
X10707619Y17158880D02*
X10707619Y16587452D01*
X9707619Y16873166D02*
X10707619Y16873166D01*
X-9715476Y547619D02*
X-10191666Y547619D01*
X-10239285Y71428D01*
X-10191666Y119047D01*
X-10096428Y166666D01*
X-9858333Y166666D01*
X-9763095Y119047D01*
X-9715476Y71428D01*
X-9667857Y-23809D01*
X-9667857Y-261904D01*
X-9715476Y-357142D01*
X-9763095Y-404761D01*
X-9858333Y-452380D01*
X-10096428Y-452380D01*
X-10191666Y-404761D01*
X-10239285Y-357142D01*
X-9382142Y547619D02*
X-9048809Y-452380D01*
X-8715476Y547619D01*
X2087619Y5589690D02*
X3087619Y5589690D01*
X3087619Y5351595D01*
X3040000Y5208738D01*
X2944761Y5113500D01*
X2849523Y5065880D01*
X2659047Y5018261D01*
X2516190Y5018261D01*
X2325714Y5065880D01*
X2230476Y5113500D01*
X2135238Y5208738D01*
X2087619Y5351595D01*
X2087619Y5589690D01*
X2373333Y4637309D02*
X2373333Y4161119D01*
X2087619Y4732547D02*
X3087619Y4399214D01*
X2087619Y4065880D01*
X3135238Y3018261D02*
X1849523Y3875404D01*
X2373333Y2732547D02*
X2373333Y2256357D01*
X2087619Y2827785D02*
X3087619Y2494452D01*
X2087619Y2161119D01*
X3087619Y1637309D02*
X3087619Y1542071D01*
X3040000Y1446833D01*
X2992380Y1399214D01*
X2897142Y1351595D01*
X2706666Y1303976D01*
X2468571Y1303976D01*
X2278095Y1351595D01*
X2182857Y1399214D01*
X2135238Y1446833D01*
X2087619Y1542071D01*
X2087619Y1637309D01*
X2135238Y1732547D01*
X2182857Y1780166D01*
X2278095Y1827785D01*
X2468571Y1875404D01*
X2706666Y1875404D01*
X2897142Y1827785D01*
X2992380Y1780166D01*
X3040000Y1732547D01*
X3087619Y1637309D01*
X-16184619Y-738095D02*
X-17184619Y-738095D01*
X-17184619Y-499999D01*
X-17137000Y-357142D01*
X-17041761Y-261904D01*
X-16946523Y-214285D01*
X-16756047Y-166666D01*
X-16613190Y-166666D01*
X-16422714Y-214285D01*
X-16327476Y-261904D01*
X-16232238Y-357142D01*
X-16184619Y-500000D01*
X-16184619Y-738095D01*
X-16851285Y690476D02*
X-16184619Y690476D01*
X-17232238Y452380D02*
X-16517952Y214285D01*
X-16517952Y833333D01*
X-14708095Y5135619D02*
X-14708095Y6135619D01*
X-14470000Y6135619D01*
X-14327142Y6088000D01*
X-14231904Y5992761D01*
X-14184285Y5897523D01*
X-14136666Y5707047D01*
X-14136666Y5564190D01*
X-14184285Y5373714D01*
X-14231904Y5278476D01*
X-14327142Y5183238D01*
X-14470000Y5135619D01*
X-14708095Y5135619D01*
X-13184285Y5135619D02*
X-13755714Y5135619D01*
X-13470000Y5135619D02*
X-13470000Y6135619D01*
X-13565238Y5992761D01*
X-13660476Y5897523D01*
X-13755714Y5849904D01*
X33742380Y17446666D02*
X34456666Y17446666D01*
X34599523Y17399047D01*
X34694761Y17303809D01*
X34742380Y17160952D01*
X34742380Y17065714D01*
X33837619Y17875238D02*
X33790000Y17922857D01*
X33742380Y18018095D01*
X33742380Y18256190D01*
X33790000Y18351428D01*
X33837619Y18399047D01*
X33932857Y18446666D01*
X34028095Y18446666D01*
X34170952Y18399047D01*
X34742380Y17827619D01*
X34742380Y18446666D01*
X-11104619Y13485904D02*
X-12104619Y13485904D01*
X-12104619Y13724000D01*
X-12057000Y13866857D01*
X-11961761Y13962095D01*
X-11866523Y14009714D01*
X-11676047Y14057333D01*
X-11533190Y14057333D01*
X-11342714Y14009714D01*
X-11247476Y13962095D01*
X-11152238Y13866857D01*
X-11104619Y13724000D01*
X-11104619Y13485904D01*
X-12009380Y14438285D02*
X-12057000Y14485904D01*
X-12104619Y14581142D01*
X-12104619Y14819238D01*
X-12057000Y14914476D01*
X-12009380Y14962095D01*
X-11914142Y15009714D01*
X-11818904Y15009714D01*
X-11676047Y14962095D01*
X-11104619Y14390666D01*
X-11104619Y15009714D01*
X4659333Y6754857D02*
X4611714Y6707238D01*
X4468857Y6659619D01*
X4373619Y6659619D01*
X4230761Y6707238D01*
X4135523Y6802476D01*
X4087904Y6897714D01*
X4040285Y7088190D01*
X4040285Y7231047D01*
X4087904Y7421523D01*
X4135523Y7516761D01*
X4230761Y7612000D01*
X4373619Y7659619D01*
X4468857Y7659619D01*
X4611714Y7612000D01*
X4659333Y7564380D01*
X5040285Y7564380D02*
X5087904Y7612000D01*
X5183142Y7659619D01*
X5421238Y7659619D01*
X5516476Y7612000D01*
X5564095Y7564380D01*
X5611714Y7469142D01*
X5611714Y7373904D01*
X5564095Y7231047D01*
X4992666Y6659619D01*
X5611714Y6659619D01*
X-1746190Y8278809D02*
X-1746190Y7802619D01*
X-2079523Y8802619D02*
X-1746190Y8278809D01*
X-1412857Y8802619D01*
X-555714Y7802619D02*
X-1127142Y7802619D01*
X-841428Y7802619D02*
X-841428Y8802619D01*
X-936666Y8659761D01*
X-1031904Y8564523D01*
X-1127142Y8516904D01*
X-7683333Y14073238D02*
X-7540476Y14025619D01*
X-7302380Y14025619D01*
X-7207142Y14073238D01*
X-7159523Y14120857D01*
X-7111904Y14216095D01*
X-7111904Y14311333D01*
X-7159523Y14406571D01*
X-7207142Y14454190D01*
X-7302380Y14501809D01*
X-7492857Y14549428D01*
X-7588095Y14597047D01*
X-7635714Y14644666D01*
X-7683333Y14739904D01*
X-7683333Y14835142D01*
X-7635714Y14930380D01*
X-7588095Y14978000D01*
X-7492857Y15025619D01*
X-7254761Y15025619D01*
X-7111904Y14978000D01*
X-6778571Y15025619D02*
X-6540476Y14025619D01*
X-6350000Y14739904D01*
X-6159523Y14025619D01*
X-5921428Y15025619D01*
X-5016666Y14025619D02*
X-5588095Y14025619D01*
X-5302380Y14025619D02*
X-5302380Y15025619D01*
X-5397619Y14882761D01*
X-5492857Y14787523D01*
X-5588095Y14739904D01*
X16891094Y10707619D02*
X16891094Y9898095D01*
X16938713Y9802857D01*
X16986332Y9755238D01*
X17081570Y9707619D01*
X17272046Y9707619D01*
X17367284Y9755238D01*
X17414903Y9802857D01*
X17462522Y9898095D01*
X17462522Y10707619D01*
X18462522Y9707619D02*
X17891094Y9707619D01*
X18176808Y9707619D02*
X18176808Y10707619D01*
X18081570Y10564761D01*
X17986332Y10469523D01*
X17891094Y10421904D01*
X4659333Y12850857D02*
X4611714Y12803238D01*
X4468857Y12755619D01*
X4373619Y12755619D01*
X4230761Y12803238D01*
X4135523Y12898476D01*
X4087904Y12993714D01*
X4040285Y13184190D01*
X4040285Y13327047D01*
X4087904Y13517523D01*
X4135523Y13612761D01*
X4230761Y13708000D01*
X4373619Y13755619D01*
X4468857Y13755619D01*
X4611714Y13708000D01*
X4659333Y13660380D01*
X5611714Y12755619D02*
X5040285Y12755619D01*
X5326000Y12755619D02*
X5326000Y13755619D01*
X5230761Y13612761D01*
X5135523Y13517523D01*
X5040285Y13469904D01*
X-21502619Y4746666D02*
X-20788333Y4746666D01*
X-20645476Y4699047D01*
X-20550238Y4603809D01*
X-20502619Y4460952D01*
X-20502619Y4365714D01*
X-20502619Y5746666D02*
X-20502619Y5175238D01*
X-20502619Y5460952D02*
X-21502619Y5460952D01*
X-21359761Y5365714D01*
X-21264523Y5270476D01*
X-21216904Y5175238D01*
X-16184619Y1801904D02*
X-17184619Y1801904D01*
X-17184619Y2040000D01*
X-17137000Y2182857D01*
X-17041761Y2278095D01*
X-16946523Y2325714D01*
X-16756047Y2373333D01*
X-16613190Y2373333D01*
X-16422714Y2325714D01*
X-16327476Y2278095D01*
X-16232238Y2182857D01*
X-16184619Y2040000D01*
X-16184619Y1801904D01*
X-17184619Y3278095D02*
X-17184619Y2801904D01*
X-16708428Y2754285D01*
X-16756047Y2801904D01*
X-16803666Y2897142D01*
X-16803666Y3135238D01*
X-16756047Y3230476D01*
X-16708428Y3278095D01*
X-16613190Y3325714D01*
X-16375095Y3325714D01*
X-16279857Y3278095D01*
X-16232238Y3230476D01*
X-16184619Y3135238D01*
X-16184619Y2897142D01*
X-16232238Y2801904D01*
X-16279857Y2754285D01*
D11*
X-15830000Y-960000D02*
X-12970000Y-960000D01*
X-15830000Y960000D02*
X-15830000Y-960000D01*
X-12970000Y960000D02*
X-15830000Y960000D01*
X-12410000Y8128000D02*
X-12410000Y8778000D01*
X-15530000Y8128000D02*
X-15530000Y8778000D01*
X-12410000Y8128000D02*
X-12410000Y7478000D01*
X-15530000Y8128000D02*
X-15530000Y6453000D01*
X34350000Y16570000D02*
X34350000Y3750000D01*
X29150000Y13970000D02*
X29150000Y3750000D01*
X29150000Y16570000D02*
X30480000Y16570000D01*
X29150000Y15240000D02*
X29150000Y16570000D01*
X31750000Y16570000D02*
X34350000Y16570000D01*
X31750000Y13970000D02*
X31750000Y16570000D01*
X29150000Y13970000D02*
X31750000Y13970000D01*
X29150000Y3750000D02*
X34350000Y3750000D01*
X-15530000Y12192000D02*
X-15530000Y11542000D01*
X-15530000Y12192000D02*
X-15530000Y12842000D01*
X-12410000Y12192000D02*
X-12410000Y13867000D01*
X-12410000Y12192000D02*
X-12410000Y11542000D01*
X2166252Y6250000D02*
X1643748Y6250000D01*
X2166252Y7720000D02*
X1643748Y7720000D01*
X1180000Y8860000D02*
X680000Y8860000D01*
X2080000Y11110000D02*
X2280000Y11110000D01*
X1180000Y10510000D02*
X2080000Y11110000D01*
X680000Y11460000D02*
X1180000Y11460000D01*
X1180000Y9810000D02*
X2080000Y9210000D01*
X2080000Y9210000D02*
X2280000Y9210000D01*
X1180000Y11460000D02*
X1180000Y8860000D01*
X-10740000Y13220000D02*
X-7040000Y13220000D01*
X-7040000Y13220000D02*
X-7040000Y7100000D01*
X-7040000Y7100000D02*
X-10740000Y7100000D01*
X-10740000Y7100000D02*
X-10740000Y13220000D01*
X6642887Y10478198D02*
X6324689Y10160000D01*
X11748198Y5372887D02*
X11430000Y5054689D01*
X6642887Y9841802D02*
X5730719Y8929634D01*
X11111802Y14947113D02*
X11430000Y15265311D01*
X6324689Y10160000D02*
X6642887Y9841802D01*
X11430000Y5054689D02*
X11111802Y5372887D01*
X11430000Y15265311D02*
X11748198Y14947113D01*
X16217113Y9841802D02*
X16535311Y10160000D01*
X16535311Y10160000D02*
X16217113Y10478198D01*
X2166252Y14070000D02*
X1643748Y14070000D01*
X2166252Y12600000D02*
X1643748Y12600000D01*
X-19751800Y13920000D02*
X-17771800Y13920000D01*
X-19751800Y6400000D02*
X-17771800Y6400000D01*
X-17771800Y6400000D02*
X-17771800Y6820000D01*
X-17771800Y13920000D02*
X-17771800Y13500000D01*
X-22121800Y13920000D02*
X-21721800Y13920000D01*
X-17091800Y11470000D02*
X-17091800Y11920000D01*
X-17541800Y11920000D02*
X-17091800Y11920000D01*
X-21721800Y6400000D02*
X-22121800Y6400000D01*
X-12970000Y3500000D02*
X-15830000Y3500000D01*
X-15830000Y1580000D02*
X-12970000Y1580000D01*
X-15830000Y3500000D02*
X-15830000Y1580000D01*
%LPC*%
D12*
X-14995000Y0D03*
X-12945000Y0D03*
D13*
X-14920000Y7190500D03*
X-13020000Y7190500D03*
X-13970000Y9065500D03*
D14*
X30480000Y15240000D03*
D15*
X33020000Y15240000D03*
X30480000Y12700000D03*
X33020000Y12700000D03*
X30480000Y10160000D03*
X33020000Y10160000D03*
X30480000Y7620000D03*
X33020000Y7620000D03*
X30480000Y5080000D03*
X33020000Y5080000D03*
D16*
X-13020000Y13129500D03*
X-14920000Y13129500D03*
X-13970000Y11254500D03*
D17*
X2942500Y6985000D03*
X867500Y6985000D03*
D18*
X2980000Y11110000D03*
X2980000Y9210000D03*
D19*
X-2770000Y10160000D03*
D20*
X-8890000Y14060000D03*
X-8890000Y6260000D03*
D21*
X-19884800Y-90000D03*
X37115200Y20410000D03*
D22*
X6542124Y9161212D03*
X6895678Y8807658D03*
X7249231Y8454105D03*
X7602785Y8100551D03*
X7956338Y7746998D03*
X8309891Y7393445D03*
X8663445Y7039891D03*
X9016998Y6686338D03*
X9370551Y6332785D03*
X9724105Y5979231D03*
X10077658Y5625678D03*
X10431212Y5272124D03*
D23*
X12428788Y5272124D03*
X12782342Y5625678D03*
X13135895Y5979231D03*
X13489449Y6332785D03*
X13843002Y6686338D03*
X14196555Y7039891D03*
X14550109Y7393445D03*
X14903662Y7746998D03*
X15257215Y8100551D03*
X15610769Y8454105D03*
X15964322Y8807658D03*
X16317876Y9161212D03*
D22*
X16317876Y11158788D03*
X15964322Y11512342D03*
X15610769Y11865895D03*
X15257215Y12219449D03*
X14903662Y12573002D03*
X14550109Y12926555D03*
X14196555Y13280109D03*
X13843002Y13633662D03*
X13489449Y13987215D03*
X13135895Y14340769D03*
X12782342Y14694322D03*
X12428788Y15047876D03*
D23*
X10431212Y15047876D03*
X10077658Y14694322D03*
X9724105Y14340769D03*
X9370551Y13987215D03*
X9016998Y13633662D03*
X8663445Y13280109D03*
X8309891Y12926555D03*
X7956338Y12573002D03*
X7602785Y12219449D03*
X7249231Y11865895D03*
X6895678Y11512342D03*
X6542124Y11158788D03*
D17*
X2942500Y13335000D03*
X867500Y13335000D03*
D21*
X37115200Y-90000D03*
D24*
X-18031800Y11460000D03*
X-18031800Y10810000D03*
X-18031800Y10160000D03*
X-18031800Y9510000D03*
X-18031800Y8860000D03*
D25*
X-20731800Y13660000D03*
D26*
X-20731800Y7260000D03*
D27*
X-20731800Y9160000D03*
D26*
X-20731800Y13060000D03*
D25*
X-20731800Y6660000D03*
D28*
X-18031800Y7660000D03*
X-18031800Y12660000D03*
D27*
X-20731800Y11160000D03*
D12*
X-14995000Y2540000D03*
X-12945000Y2540000D03*
D21*
X-19884800Y20410000D03*
D14*
X33020000Y20320000D03*
D15*
X30480000Y20320000D03*
X27940000Y20320000D03*
X25400000Y20320000D03*
X22860000Y20320000D03*
X20320000Y20320000D03*
X17780000Y20320000D03*
X15240000Y20320000D03*
X12700000Y20320000D03*
X10160000Y20320000D03*
X7620000Y20320000D03*
X5080000Y20320000D03*
X2540000Y20320000D03*
X0Y20320000D03*
X-2540000Y20320000D03*
X-5080000Y20320000D03*
X-7620000Y20320000D03*
X-10160000Y20320000D03*
D14*
X0Y0D03*
D15*
X2540000Y0D03*
X5080000Y0D03*
X7620000Y0D03*
X10160000Y0D03*
X12700000Y0D03*
X15240000Y0D03*
X17780000Y0D03*
X20320000Y0D03*
X22860000Y0D03*
X25400000Y0D03*
X27940000Y0D03*
X30480000Y0D03*
X33020000Y0D03*
M02*
