G04 #@! TF.GenerationSoftware,KiCad,Pcbnew,(6.0.9)*
G04 #@! TF.CreationDate,2022-11-19T12:24:37+01:00*
G04 #@! TF.ProjectId,SAMD21 breakout,53414d44-3231-4206-9272-65616b6f7574,rev?*
G04 #@! TF.SameCoordinates,Original*
G04 #@! TF.FileFunction,Soldermask,Top*
G04 #@! TF.FilePolarity,Negative*
%FSLAX46Y46*%
G04 Gerber Fmt 4.6, Leading zero omitted, Abs format (unit mm)*
G04 Created by KiCad (PCBNEW (6.0.9)) date 2022-11-19 12:24:37*
%MOMM*%
%LPD*%
G01*
G04 APERTURE LIST*
G04 Aperture macros list*
%AMRoundRect*
0 Rectangle with rounded corners*
0 $1 Rounding radius*
0 $2 $3 $4 $5 $6 $7 $8 $9 X,Y pos of 4 corners*
0 Add a 4 corners polygon primitive as box body*
4,1,4,$2,$3,$4,$5,$6,$7,$8,$9,$2,$3,0*
0 Add four circle primitives for the rounded corners*
1,1,$1+$1,$2,$3*
1,1,$1+$1,$4,$5*
1,1,$1+$1,$6,$7*
1,1,$1+$1,$8,$9*
0 Add four rect primitives between the rounded corners*
20,1,$1+$1,$2,$3,$4,$5,0*
20,1,$1+$1,$4,$5,$6,$7,0*
20,1,$1+$1,$6,$7,$8,$9,0*
20,1,$1+$1,$8,$9,$2,$3,0*%
G04 Aperture macros list end*
%ADD10RoundRect,0.250000X-0.325000X-0.450000X0.325000X-0.450000X0.325000X0.450000X-0.325000X0.450000X0*%
%ADD11RoundRect,0.150000X0.150000X-0.587500X0.150000X0.587500X-0.150000X0.587500X-0.150000X-0.587500X0*%
%ADD12R,1.700000X1.700000*%
%ADD13O,1.700000X1.700000*%
%ADD14RoundRect,0.150000X-0.150000X0.587500X-0.150000X-0.587500X0.150000X-0.587500X0.150000X0.587500X0*%
%ADD15RoundRect,0.250000X0.337500X0.475000X-0.337500X0.475000X-0.337500X-0.475000X0.337500X-0.475000X0*%
%ADD16C,1.000000*%
%ADD17R,6.500000X2.200000*%
%ADD18R,1.500000X1.500000*%
%ADD19C,2.200000*%
%ADD20RoundRect,0.075000X-0.415425X-0.521491X0.521491X0.415425X0.415425X0.521491X-0.521491X-0.415425X0*%
%ADD21RoundRect,0.075000X0.415425X-0.521491X0.521491X-0.415425X-0.415425X0.521491X-0.521491X0.415425X0*%
%ADD22R,1.350000X0.400000*%
%ADD23O,1.550000X0.890000*%
%ADD24R,1.550000X1.200000*%
%ADD25R,1.550000X1.500000*%
%ADD26O,0.950000X1.250000*%
G04 APERTURE END LIST*
D10*
X-14995000Y0D03*
X-12945000Y0D03*
D11*
X-14920000Y7190500D03*
X-13020000Y7190500D03*
X-13970000Y9065500D03*
D12*
X30480000Y15240000D03*
D13*
X33020000Y15240000D03*
X30480000Y12700000D03*
X33020000Y12700000D03*
X30480000Y10160000D03*
X33020000Y10160000D03*
X30480000Y7620000D03*
X33020000Y7620000D03*
X30480000Y5080000D03*
X33020000Y5080000D03*
D14*
X-13020000Y13129500D03*
X-14920000Y13129500D03*
X-13970000Y11254500D03*
D15*
X2942500Y6985000D03*
X867500Y6985000D03*
D16*
X2980000Y11110000D03*
X2980000Y9210000D03*
D17*
X-2770000Y10160000D03*
D18*
X-8890000Y14060000D03*
X-8890000Y6260000D03*
D19*
X-19884800Y-90000D03*
X37115200Y20410000D03*
D20*
X6542124Y9161212D03*
X6895678Y8807658D03*
X7249231Y8454105D03*
X7602785Y8100551D03*
X7956338Y7746998D03*
X8309891Y7393445D03*
X8663445Y7039891D03*
X9016998Y6686338D03*
X9370551Y6332785D03*
X9724105Y5979231D03*
X10077658Y5625678D03*
X10431212Y5272124D03*
D21*
X12428788Y5272124D03*
X12782342Y5625678D03*
X13135895Y5979231D03*
X13489449Y6332785D03*
X13843002Y6686338D03*
X14196555Y7039891D03*
X14550109Y7393445D03*
X14903662Y7746998D03*
X15257215Y8100551D03*
X15610769Y8454105D03*
X15964322Y8807658D03*
X16317876Y9161212D03*
D20*
X16317876Y11158788D03*
X15964322Y11512342D03*
X15610769Y11865895D03*
X15257215Y12219449D03*
X14903662Y12573002D03*
X14550109Y12926555D03*
X14196555Y13280109D03*
X13843002Y13633662D03*
X13489449Y13987215D03*
X13135895Y14340769D03*
X12782342Y14694322D03*
X12428788Y15047876D03*
D21*
X10431212Y15047876D03*
X10077658Y14694322D03*
X9724105Y14340769D03*
X9370551Y13987215D03*
X9016998Y13633662D03*
X8663445Y13280109D03*
X8309891Y12926555D03*
X7956338Y12573002D03*
X7602785Y12219449D03*
X7249231Y11865895D03*
X6895678Y11512342D03*
X6542124Y11158788D03*
D15*
X2942500Y13335000D03*
X867500Y13335000D03*
D19*
X37115200Y-90000D03*
D22*
X-18031800Y11460000D03*
X-18031800Y10810000D03*
X-18031800Y10160000D03*
X-18031800Y9510000D03*
X-18031800Y8860000D03*
D23*
X-20731800Y13660000D03*
D24*
X-20731800Y7260000D03*
D25*
X-20731800Y9160000D03*
D24*
X-20731800Y13060000D03*
D23*
X-20731800Y6660000D03*
D26*
X-18031800Y7660000D03*
X-18031800Y12660000D03*
D25*
X-20731800Y11160000D03*
D10*
X-14995000Y2540000D03*
X-12945000Y2540000D03*
D19*
X-19884800Y20410000D03*
D12*
X33020000Y20320000D03*
D13*
X30480000Y20320000D03*
X27940000Y20320000D03*
X25400000Y20320000D03*
X22860000Y20320000D03*
X20320000Y20320000D03*
X17780000Y20320000D03*
X15240000Y20320000D03*
X12700000Y20320000D03*
X10160000Y20320000D03*
X7620000Y20320000D03*
X5080000Y20320000D03*
X2540000Y20320000D03*
X0Y20320000D03*
X-2540000Y20320000D03*
X-5080000Y20320000D03*
X-7620000Y20320000D03*
X-10160000Y20320000D03*
D12*
X0Y0D03*
D13*
X2540000Y0D03*
X5080000Y0D03*
X7620000Y0D03*
X10160000Y0D03*
X12700000Y0D03*
X15240000Y0D03*
X17780000Y0D03*
X20320000Y0D03*
X22860000Y0D03*
X25400000Y0D03*
X27940000Y0D03*
X30480000Y0D03*
X33020000Y0D03*
M02*
