%TF.GenerationSoftware,KiCad,Pcbnew,(6.0.9)*%
%TF.CreationDate,2022-11-19T12:25:15+01:00*%
%TF.ProjectId,SAMD21 breakout,53414d44-3231-4206-9272-65616b6f7574,rev?*%
%TF.SameCoordinates,Original*%
%TF.FileFunction,Drillmap*%
%TF.FilePolarity,Positive*%
%FSLAX45Y45*%
G04 Gerber Fmt 4.5, Leading zero omitted, Abs format (unit mm)*
G04 Created by KiCad (PCBNEW (6.0.9)) date 2022-11-19 12:25:15*
%MOMM*%
%LPD*%
G01*
G04 APERTURE LIST*
%ADD10C,0.100000*%
%ADD11C,0.200000*%
%ADD12C,0.220000*%
G04 APERTURE END LIST*
D10*
X3711520Y-234000D02*
G75*
G03*
X3936520Y-9000I0J225000D01*
G01*
X3936520Y-9000D02*
X3936520Y2041000D01*
X3936520Y2041000D02*
G75*
G03*
X3711520Y2266000I-225000J0D01*
G01*
X-2213480Y-9000D02*
G75*
G03*
X-1988480Y-234000I225000J0D01*
G01*
X-1988480Y2266000D02*
G75*
G03*
X-2213480Y2041000I0J-225000D01*
G01*
X3711520Y2266000D02*
X-1988480Y2266000D01*
X-1988480Y-234000D02*
X3711520Y-234000D01*
X-2213480Y2041000D02*
X-2213480Y-9000D01*
D11*
D12*
X-2098480Y2151000D02*
X-1878480Y1931000D01*
X-1878480Y2151000D02*
X-2098480Y1931000D01*
X-2098480Y101000D02*
X-1878480Y-119000D01*
X-1878480Y101000D02*
X-2098480Y-119000D01*
X3601520Y2151000D02*
X3821520Y1931000D01*
X3821520Y2151000D02*
X3601520Y1931000D01*
X3601520Y101000D02*
X3821520Y-119000D01*
X3821520Y101000D02*
X3601520Y-119000D01*
D11*
X-1960861Y-549476D02*
X-1960861Y-349476D01*
X-1913242Y-349476D01*
X-1884670Y-359000D01*
X-1865623Y-378048D01*
X-1856099Y-397095D01*
X-1846575Y-435190D01*
X-1846575Y-463762D01*
X-1856099Y-501857D01*
X-1865623Y-520905D01*
X-1884670Y-539952D01*
X-1913242Y-549476D01*
X-1960861Y-549476D01*
X-1760861Y-549476D02*
X-1760861Y-416143D01*
X-1760861Y-454238D02*
X-1751337Y-435190D01*
X-1741813Y-425667D01*
X-1722766Y-416143D01*
X-1703718Y-416143D01*
X-1637051Y-549476D02*
X-1637051Y-416143D01*
X-1637051Y-349476D02*
X-1646575Y-359000D01*
X-1637051Y-368524D01*
X-1627528Y-359000D01*
X-1637051Y-349476D01*
X-1637051Y-368524D01*
X-1513242Y-549476D02*
X-1532289Y-539952D01*
X-1541813Y-520905D01*
X-1541813Y-349476D01*
X-1408480Y-549476D02*
X-1427528Y-539952D01*
X-1437051Y-520905D01*
X-1437051Y-349476D01*
X-1179909Y-549476D02*
X-1179909Y-349476D01*
X-1113242Y-492333D01*
X-1046575Y-349476D01*
X-1046575Y-549476D01*
X-865623Y-549476D02*
X-865623Y-444714D01*
X-875147Y-425667D01*
X-894194Y-416143D01*
X-932289Y-416143D01*
X-951337Y-425667D01*
X-865623Y-539952D02*
X-884670Y-549476D01*
X-932289Y-549476D01*
X-951337Y-539952D01*
X-960861Y-520905D01*
X-960861Y-501857D01*
X-951337Y-482809D01*
X-932289Y-473286D01*
X-884670Y-473286D01*
X-865623Y-463762D01*
X-770385Y-416143D02*
X-770385Y-616143D01*
X-770385Y-425667D02*
X-751337Y-416143D01*
X-713242Y-416143D01*
X-694194Y-425667D01*
X-684670Y-435190D01*
X-675147Y-454238D01*
X-675147Y-511381D01*
X-684670Y-530429D01*
X-694194Y-539952D01*
X-713242Y-549476D01*
X-751337Y-549476D01*
X-770385Y-539952D01*
X-589432Y-530429D02*
X-579909Y-539952D01*
X-589432Y-549476D01*
X-598956Y-539952D01*
X-589432Y-530429D01*
X-589432Y-549476D01*
X-589432Y-425667D02*
X-579909Y-435190D01*
X-589432Y-444714D01*
X-598956Y-435190D01*
X-589432Y-425667D01*
X-589432Y-444714D01*
X-2418480Y-779000D02*
X-2218480Y-979000D01*
X-2218480Y-779000D02*
X-2418480Y-979000D01*
X-1970385Y-788524D02*
X-1960861Y-779000D01*
X-1941813Y-769476D01*
X-1894194Y-769476D01*
X-1875147Y-779000D01*
X-1865623Y-788524D01*
X-1856099Y-807571D01*
X-1856099Y-826619D01*
X-1865623Y-855190D01*
X-1979908Y-969476D01*
X-1856099Y-969476D01*
X-1770385Y-950428D02*
X-1760861Y-959952D01*
X-1770385Y-969476D01*
X-1779908Y-959952D01*
X-1770385Y-950428D01*
X-1770385Y-969476D01*
X-1684670Y-788524D02*
X-1675147Y-779000D01*
X-1656099Y-769476D01*
X-1608480Y-769476D01*
X-1589432Y-779000D01*
X-1579908Y-788524D01*
X-1570385Y-807571D01*
X-1570385Y-826619D01*
X-1579908Y-855190D01*
X-1694194Y-969476D01*
X-1570385Y-969476D01*
X-1446575Y-769476D02*
X-1427528Y-769476D01*
X-1408480Y-779000D01*
X-1398956Y-788524D01*
X-1389432Y-807571D01*
X-1379909Y-845667D01*
X-1379909Y-893286D01*
X-1389432Y-931381D01*
X-1398956Y-950428D01*
X-1408480Y-959952D01*
X-1427528Y-969476D01*
X-1446575Y-969476D01*
X-1465623Y-959952D01*
X-1475147Y-950428D01*
X-1484670Y-931381D01*
X-1494194Y-893286D01*
X-1494194Y-845667D01*
X-1484670Y-807571D01*
X-1475147Y-788524D01*
X-1465623Y-779000D01*
X-1446575Y-769476D01*
X-1256099Y-769476D02*
X-1237051Y-769476D01*
X-1218004Y-779000D01*
X-1208480Y-788524D01*
X-1198956Y-807571D01*
X-1189432Y-845667D01*
X-1189432Y-893286D01*
X-1198956Y-931381D01*
X-1208480Y-950428D01*
X-1218004Y-959952D01*
X-1237051Y-969476D01*
X-1256099Y-969476D01*
X-1275147Y-959952D01*
X-1284670Y-950428D01*
X-1294194Y-931381D01*
X-1303718Y-893286D01*
X-1303718Y-845667D01*
X-1294194Y-807571D01*
X-1284670Y-788524D01*
X-1275147Y-779000D01*
X-1256099Y-769476D01*
X-1103718Y-969476D02*
X-1103718Y-836143D01*
X-1103718Y-855190D02*
X-1094194Y-845667D01*
X-1075147Y-836143D01*
X-1046575Y-836143D01*
X-1027528Y-845667D01*
X-1018004Y-864714D01*
X-1018004Y-969476D01*
X-1018004Y-864714D02*
X-1008480Y-845667D01*
X-989432Y-836143D01*
X-960861Y-836143D01*
X-941813Y-845667D01*
X-932289Y-864714D01*
X-932289Y-969476D01*
X-837051Y-969476D02*
X-837051Y-836143D01*
X-837051Y-855190D02*
X-827528Y-845667D01*
X-808480Y-836143D01*
X-779908Y-836143D01*
X-760861Y-845667D01*
X-751337Y-864714D01*
X-751337Y-969476D01*
X-751337Y-864714D02*
X-741813Y-845667D01*
X-722766Y-836143D01*
X-694194Y-836143D01*
X-675147Y-845667D01*
X-665623Y-864714D01*
X-665623Y-969476D01*
X-275147Y-759952D02*
X-446575Y-1017095D01*
X-18004Y-769476D02*
X1044Y-769476D01*
X20091Y-779000D01*
X29615Y-788524D01*
X39139Y-807571D01*
X48663Y-845667D01*
X48663Y-893286D01*
X39139Y-931381D01*
X29615Y-950428D01*
X20091Y-959952D01*
X1044Y-969476D01*
X-18004Y-969476D01*
X-37051Y-959952D01*
X-46575Y-950428D01*
X-56099Y-931381D01*
X-65623Y-893286D01*
X-65623Y-845667D01*
X-56099Y-807571D01*
X-46575Y-788524D01*
X-37051Y-779000D01*
X-18004Y-769476D01*
X134377Y-950428D02*
X143901Y-959952D01*
X134377Y-969476D01*
X124853Y-959952D01*
X134377Y-950428D01*
X134377Y-969476D01*
X267710Y-769476D02*
X286758Y-769476D01*
X305806Y-779000D01*
X315330Y-788524D01*
X324853Y-807571D01*
X334377Y-845667D01*
X334377Y-893286D01*
X324853Y-931381D01*
X315330Y-950428D01*
X305806Y-959952D01*
X286758Y-969476D01*
X267710Y-969476D01*
X248663Y-959952D01*
X239139Y-950428D01*
X229615Y-931381D01*
X220091Y-893286D01*
X220091Y-845667D01*
X229615Y-807571D01*
X239139Y-788524D01*
X248663Y-779000D01*
X267710Y-769476D01*
X448663Y-855190D02*
X429615Y-845667D01*
X420091Y-836143D01*
X410568Y-817095D01*
X410568Y-807571D01*
X420091Y-788524D01*
X429615Y-779000D01*
X448663Y-769476D01*
X486758Y-769476D01*
X505806Y-779000D01*
X515329Y-788524D01*
X524853Y-807571D01*
X524853Y-817095D01*
X515329Y-836143D01*
X505806Y-845667D01*
X486758Y-855190D01*
X448663Y-855190D01*
X429615Y-864714D01*
X420091Y-874238D01*
X410568Y-893286D01*
X410568Y-931381D01*
X420091Y-950428D01*
X429615Y-959952D01*
X448663Y-969476D01*
X486758Y-969476D01*
X505806Y-959952D01*
X515329Y-950428D01*
X524853Y-931381D01*
X524853Y-893286D01*
X515329Y-874238D01*
X505806Y-864714D01*
X486758Y-855190D01*
X696282Y-769476D02*
X658187Y-769476D01*
X639139Y-779000D01*
X629615Y-788524D01*
X610568Y-817095D01*
X601044Y-855190D01*
X601044Y-931381D01*
X610568Y-950428D01*
X620091Y-959952D01*
X639139Y-969476D01*
X677234Y-969476D01*
X696282Y-959952D01*
X705806Y-950428D01*
X715329Y-931381D01*
X715329Y-883762D01*
X705806Y-864714D01*
X696282Y-855190D01*
X677234Y-845667D01*
X639139Y-845667D01*
X620091Y-855190D01*
X610568Y-864714D01*
X601044Y-883762D01*
X886758Y-769476D02*
X848663Y-769476D01*
X829615Y-779000D01*
X820091Y-788524D01*
X801044Y-817095D01*
X791520Y-855190D01*
X791520Y-931381D01*
X801044Y-950428D01*
X810568Y-959952D01*
X829615Y-969476D01*
X867710Y-969476D01*
X886758Y-959952D01*
X896282Y-950428D01*
X905806Y-931381D01*
X905806Y-883762D01*
X896282Y-864714D01*
X886758Y-855190D01*
X867710Y-845667D01*
X829615Y-845667D01*
X810568Y-855190D01*
X801044Y-864714D01*
X791520Y-883762D01*
X981996Y-769476D02*
X981996Y-807571D01*
X1058187Y-769476D02*
X1058187Y-807571D01*
X1353425Y-1045667D02*
X1343901Y-1036143D01*
X1324853Y-1007571D01*
X1315330Y-988524D01*
X1305806Y-959952D01*
X1296282Y-912333D01*
X1296282Y-874238D01*
X1305806Y-826619D01*
X1315330Y-798048D01*
X1324853Y-779000D01*
X1343901Y-750428D01*
X1353425Y-740905D01*
X1515329Y-836143D02*
X1515329Y-969476D01*
X1467710Y-759952D02*
X1420091Y-902809D01*
X1543901Y-902809D01*
X1772472Y-969476D02*
X1772472Y-769476D01*
X1858187Y-969476D02*
X1858187Y-864714D01*
X1848663Y-845667D01*
X1829615Y-836143D01*
X1801044Y-836143D01*
X1781996Y-845667D01*
X1772472Y-855190D01*
X1981996Y-969476D02*
X1962948Y-959952D01*
X1953425Y-950428D01*
X1943901Y-931381D01*
X1943901Y-874238D01*
X1953425Y-855190D01*
X1962948Y-845667D01*
X1981996Y-836143D01*
X2010568Y-836143D01*
X2029615Y-845667D01*
X2039139Y-855190D01*
X2048663Y-874238D01*
X2048663Y-931381D01*
X2039139Y-950428D01*
X2029615Y-959952D01*
X2010568Y-969476D01*
X1981996Y-969476D01*
X2162949Y-969476D02*
X2143901Y-959952D01*
X2134377Y-940905D01*
X2134377Y-769476D01*
X2315330Y-959952D02*
X2296282Y-969476D01*
X2258187Y-969476D01*
X2239139Y-959952D01*
X2229615Y-940905D01*
X2229615Y-864714D01*
X2239139Y-845667D01*
X2258187Y-836143D01*
X2296282Y-836143D01*
X2315330Y-845667D01*
X2324853Y-864714D01*
X2324853Y-883762D01*
X2229615Y-902809D01*
X2401044Y-959952D02*
X2420091Y-969476D01*
X2458187Y-969476D01*
X2477234Y-959952D01*
X2486758Y-940905D01*
X2486758Y-931381D01*
X2477234Y-912333D01*
X2458187Y-902809D01*
X2429615Y-902809D01*
X2410568Y-893286D01*
X2401044Y-874238D01*
X2401044Y-864714D01*
X2410568Y-845667D01*
X2429615Y-836143D01*
X2458187Y-836143D01*
X2477234Y-845667D01*
X2553425Y-1045667D02*
X2562949Y-1036143D01*
X2581996Y-1007571D01*
X2591520Y-988524D01*
X2601044Y-959952D01*
X2610568Y-912333D01*
X2610568Y-874238D01*
X2601044Y-826619D01*
X2591520Y-798048D01*
X2581996Y-779000D01*
X2562949Y-750428D01*
X2553425Y-740905D01*
X2915329Y-1045667D02*
X2905806Y-1036143D01*
X2886758Y-1007571D01*
X2877234Y-988524D01*
X2867710Y-959952D01*
X2858187Y-912333D01*
X2858187Y-874238D01*
X2867710Y-826619D01*
X2877234Y-798048D01*
X2886758Y-779000D01*
X2905806Y-750428D01*
X2915329Y-740905D01*
X2991520Y-836143D02*
X2991520Y-969476D01*
X2991520Y-855190D02*
X3001044Y-845667D01*
X3020091Y-836143D01*
X3048663Y-836143D01*
X3067710Y-845667D01*
X3077234Y-864714D01*
X3077234Y-969476D01*
X3201044Y-969476D02*
X3181996Y-959952D01*
X3172472Y-950428D01*
X3162948Y-931381D01*
X3162948Y-874238D01*
X3172472Y-855190D01*
X3181996Y-845667D01*
X3201044Y-836143D01*
X3229615Y-836143D01*
X3248663Y-845667D01*
X3258187Y-855190D01*
X3267710Y-874238D01*
X3267710Y-931381D01*
X3258187Y-950428D01*
X3248663Y-959952D01*
X3229615Y-969476D01*
X3201044Y-969476D01*
X3324853Y-836143D02*
X3401044Y-836143D01*
X3353425Y-769476D02*
X3353425Y-940905D01*
X3362948Y-959952D01*
X3381996Y-969476D01*
X3401044Y-969476D01*
X3620091Y-836143D02*
X3620091Y-1036143D01*
X3620091Y-845667D02*
X3639139Y-836143D01*
X3677234Y-836143D01*
X3696282Y-845667D01*
X3705806Y-855190D01*
X3715329Y-874238D01*
X3715329Y-931381D01*
X3705806Y-950428D01*
X3696282Y-959952D01*
X3677234Y-969476D01*
X3639139Y-969476D01*
X3620091Y-959952D01*
X3829615Y-969476D02*
X3810568Y-959952D01*
X3801044Y-940905D01*
X3801044Y-769476D01*
X3991520Y-969476D02*
X3991520Y-864714D01*
X3981996Y-845667D01*
X3962948Y-836143D01*
X3924853Y-836143D01*
X3905806Y-845667D01*
X3991520Y-959952D02*
X3972472Y-969476D01*
X3924853Y-969476D01*
X3905806Y-959952D01*
X3896282Y-940905D01*
X3896282Y-921857D01*
X3905806Y-902809D01*
X3924853Y-893286D01*
X3972472Y-893286D01*
X3991520Y-883762D01*
X4058187Y-836143D02*
X4134377Y-836143D01*
X4086758Y-769476D02*
X4086758Y-940905D01*
X4096282Y-959952D01*
X4115329Y-969476D01*
X4134377Y-969476D01*
X4277234Y-959952D02*
X4258187Y-969476D01*
X4220091Y-969476D01*
X4201044Y-959952D01*
X4191520Y-940905D01*
X4191520Y-864714D01*
X4201044Y-845667D01*
X4220091Y-836143D01*
X4258187Y-836143D01*
X4277234Y-845667D01*
X4286758Y-864714D01*
X4286758Y-883762D01*
X4191520Y-902809D01*
X4458187Y-969476D02*
X4458187Y-769476D01*
X4458187Y-959952D02*
X4439139Y-969476D01*
X4401044Y-969476D01*
X4381996Y-959952D01*
X4372472Y-950428D01*
X4362949Y-931381D01*
X4362949Y-874238D01*
X4372472Y-855190D01*
X4381996Y-845667D01*
X4401044Y-836143D01*
X4439139Y-836143D01*
X4458187Y-845667D01*
X4534377Y-1045667D02*
X4543901Y-1036143D01*
X4562949Y-1007571D01*
X4572472Y-988524D01*
X4581996Y-959952D01*
X4591520Y-912333D01*
X4591520Y-874238D01*
X4581996Y-826619D01*
X4572472Y-798048D01*
X4562949Y-779000D01*
X4543901Y-750428D01*
X4534377Y-740905D01*
M02*
