M48
; DRILL file {KiCad (6.0.9)} date Sat Nov 19 12:25:00 2022
; FORMAT={-:-/ absolute / metric / decimal}
; #@! TF.CreationDate,2022-11-19T12:25:00+01:00
; #@! TF.GenerationSoftware,Kicad,Pcbnew,(6.0.9)
; #@! TF.FileFunction,Plated,1,2,PTH
FMAT,2
METRIC
; #@! TA.AperFunction,Plated,PTH,ViaDrill
T1C0.400
; #@! TA.AperFunction,Plated,PTH,ComponentDrill
T2C0.500
; #@! TA.AperFunction,Plated,PTH,ComponentDrill
T3C0.550
; #@! TA.AperFunction,Plated,PTH,ComponentDrill
T4C1.000
%
G90
G05
T1
X-17.018Y15.621
X-16.51Y6.35
X-16.256Y13.208
X-16.002Y8.382
X-15.113Y11.43
X-13.97Y4.572
X-13.081Y15.875
X-11.867Y1.285
X-11.684Y2.54
X-11.684Y0.0
X-10.414Y5.842
X-9.652Y8.382
X-9.398Y11.43
X-9.144Y15.748
X-8.89Y10.16
X-8.128Y4.064
X-7.703Y1.269
X-7.366Y16.256
X-5.842Y16.764
X-5.08Y6.096
X-5.08Y3.81
X-4.318Y14.478
X-3.81Y11.938
X-3.81Y0.254
X-2.54Y3.81
X-2.436Y7.328
X-1.524Y14.224
X1.524Y10.16
X3.81Y14.478
X4.766Y3.81
X4.823Y15.057
X4.826Y11.684
X4.826Y10.414
X5.08Y5.842
X6.35Y-1.27
X6.354Y6.092
X7.616Y14.764
X8.382Y9.398
X8.87Y15.656
X8.89Y-0.762
X9.398Y8.636
X9.531Y16.405
X10.16Y10.197
X10.341Y13.026
X10.656Y6.965
X11.138Y7.907
X11.43Y16.764
X11.609Y10.197
X12.137Y7.868
X12.7Y16.764
X12.954Y12.446
X13.29Y7.996
X13.462Y16.002
X13.467Y11.277
X15.24Y5.588
X15.494Y16.51
X16.51Y18.796
X16.51Y-1.27
X18.288Y11.43
X18.979Y6.914
X19.05Y14.224
X19.05Y4.826
X21.336Y12.7
X21.59Y16.256
X21.59Y7.493
X21.844Y17.78
X21.844Y11.176
X24.13Y17.78
X24.13Y11.684
X24.256Y6.986
X24.638Y4.826
X25.654Y3.392
X25.846Y6.604
X26.162Y11.684
X26.543Y18.415
X26.797Y16.002
X26.924Y6.35
X26.924Y3.339
X27.686Y13.843
X27.94Y4.064
X28.956Y6.35
X29.718Y18.542
X31.75Y8.89
X32.258Y17.78
T2
X2.98Y11.11
X2.98Y9.21
T4
X-10.16Y20.32
X-7.62Y20.32
X-5.08Y20.32
X-2.54Y20.32
X0.0Y20.32
X0.0Y0.0
X2.54Y20.32
X2.54Y0.0
X5.08Y20.32
X5.08Y0.0
X7.62Y20.32
X7.62Y0.0
X10.16Y20.32
X10.16Y0.0
X12.7Y20.32
X12.7Y0.0
X15.24Y20.32
X15.24Y0.0
X17.78Y20.32
X17.78Y0.0
X20.32Y20.32
X20.32Y0.0
X22.86Y20.32
X22.86Y0.0
X25.4Y20.32
X25.4Y0.0
X27.94Y20.32
X27.94Y0.0
X30.48Y20.32
X30.48Y15.24
X30.48Y12.7
X30.48Y10.16
X30.48Y7.62
X30.48Y5.08
X30.48Y0.0
X33.02Y20.32
X33.02Y15.24
X33.02Y12.7
X33.02Y10.16
X33.02Y7.62
X33.02Y5.08
X33.02Y0.0
T2
X-20.407Y13.66G85X-21.057Y13.66
G05
X-20.407Y6.66G85X-21.057Y6.66
G05
T3
X-18.032Y12.81G85X-18.032Y12.51
G05
X-18.032Y7.81G85X-18.032Y7.51
G05
T0
M30
